<svg xmlns="http://www.w3.org/2000/svg" viewBox="0 0 64 64" width="64" height="64" role="img" aria-label="Audio Visualizer Studio">
  <defs>
    <linearGradient id="bg" x1="0" y1="0" x2="1" y2="1">
      <stop offset="0" stop-color="#1e293b"/><stop offset="1" stop-color="#0a0d14"/>
    </linearGradient>
    <radialGradient id="bars" cx="32" cy="32" r="28" gradientUnits="userSpaceOnUse">
      <stop offset="0.35" stop-color="#06b6d4"/><stop offset="0.7" stop-color="#8b5cf6"/><stop offset="1" stop-color="#ec4899"/>
    </radialGradient>
    <linearGradient id="dot" x1="0" y1="0" x2="0" y2="1">
      <stop offset="0" stop-color="#ffffff"/><stop offset="1" stop-color="#ccd2dd"/>
    </linearGradient>
  </defs>
  <rect width="64" height="64" rx="14" fill="url(#bg)"/>
  <g fill="url(#bars)">
    <rect x="30.9" y="5.0" width="2.2" height="12.0" rx="1.1" transform="rotate(0 32 32)"/>
    <rect x="30.9" y="11.0" width="2.2" height="6.0" rx="1.1" transform="rotate(18 32 32)"/>
    <rect x="30.9" y="7.0" width="2.2" height="10.0" rx="1.1" transform="rotate(36 32 32)"/>
    <rect x="30.9" y="13.0" width="2.2" height="4.0" rx="1.1" transform="rotate(54 32 32)"/>
    <rect x="30.9" y="9.0" width="2.2" height="8.0" rx="1.1" transform="rotate(72 32 32)"/>
    <rect x="30.9" y="6.0" width="2.2" height="11.0" rx="1.1" transform="rotate(90 32 32)"/>
    <rect x="30.9" y="12.0" width="2.2" height="5.0" rx="1.1" transform="rotate(108 32 32)"/>
    <rect x="30.9" y="8.0" width="2.2" height="9.0" rx="1.1" transform="rotate(126 32 32)"/>
    <rect x="30.9" y="14.0" width="2.2" height="3.0" rx="1.1" transform="rotate(144 32 32)"/>
    <rect x="30.9" y="10.0" width="2.2" height="7.0" rx="1.1" transform="rotate(162 32 32)"/>
    <rect x="30.9" y="5.0" width="2.2" height="12.0" rx="1.1" transform="rotate(180 32 32)"/>
    <rect x="30.9" y="10.0" width="2.2" height="7.0" rx="1.1" transform="rotate(198 32 32)"/>
    <rect x="30.9" y="14.0" width="2.2" height="3.0" rx="1.1" transform="rotate(216 32 32)"/>
    <rect x="30.9" y="8.0" width="2.2" height="9.0" rx="1.1" transform="rotate(234 32 32)"/>
    <rect x="30.9" y="12.0" width="2.2" height="5.0" rx="1.1" transform="rotate(252 32 32)"/>
    <rect x="30.9" y="6.0" width="2.2" height="11.0" rx="1.1" transform="rotate(270 32 32)"/>
    <rect x="30.9" y="9.0" width="2.2" height="8.0" rx="1.1" transform="rotate(288 32 32)"/>
    <rect x="30.9" y="13.0" width="2.2" height="4.0" rx="1.1" transform="rotate(306 32 32)"/>
    <rect x="30.9" y="7.0" width="2.2" height="10.0" rx="1.1" transform="rotate(324 32 32)"/>
    <rect x="30.9" y="11.0" width="2.2" height="6.0" rx="1.1" transform="rotate(342 32 32)"/>
  </g>
  <circle cx="32" cy="32" r="12.8" fill="none" stroke="#ffffff" stroke-opacity="0.22" stroke-width="1"/>
  <circle cx="32" cy="32" r="11.5" fill="url(#dot)"/>
</svg>
